<mxfile host="app.diagrams.net" agent="Mozilla/5.0 (Windows NT 10.0; Win64; x64) AppleWebKit/537.36 (KHTML, like Gecko) Chrome/136.0.0.0 Safari/537.36 Edg/136.0.0.0" version="27.0.5">
  <diagram name="Page-1" id="1T3BzZQeBWlYQCBMlny7">
    <mxGraphModel dx="2509" dy="1506" grid="1" gridSize="10" guides="1" tooltips="1" connect="1" arrows="1" fold="1" page="0" pageScale="1" pageWidth="1169" pageHeight="827" math="0" shadow="0">
      <root>
        <mxCell id="0" />
        <mxCell id="1" parent="0" />
        <mxCell id="0xVNqbpH2IL9jWogjmOZ-22" style="edgeStyle=orthogonalEdgeStyle;rounded=0;orthogonalLoop=1;jettySize=auto;html=1;" edge="1" parent="1" source="0xVNqbpH2IL9jWogjmOZ-3" target="0xVNqbpH2IL9jWogjmOZ-9">
          <mxGeometry relative="1" as="geometry" />
        </mxCell>
        <mxCell id="0xVNqbpH2IL9jWogjmOZ-20" style="edgeStyle=orthogonalEdgeStyle;rounded=0;orthogonalLoop=1;jettySize=auto;html=1;exitX=0;exitY=0;exitDx=55.00000000000001;exitDy=0;exitPerimeter=0;entryX=0;entryY=0;entryDx=0;entryDy=85;entryPerimeter=0;" edge="1" parent="1" source="0xVNqbpH2IL9jWogjmOZ-3" target="0xVNqbpH2IL9jWogjmOZ-10">
          <mxGeometry relative="1" as="geometry" />
        </mxCell>
        <mxCell id="0xVNqbpH2IL9jWogjmOZ-1" value="&lt;font style=&quot;font-size: 22px;&quot;&gt;&lt;b&gt;&lt;i&gt;User Device&lt;/i&gt;&lt;/b&gt;&lt;/font&gt;" style="verticalAlign=top;align=left;spacingTop=8;spacingLeft=2;spacingRight=12;shape=cube;size=10;direction=south;fontStyle=4;html=1;whiteSpace=wrap;fillColor=#dae8fc;strokeColor=#6c8ebf;fontSize=18;" vertex="1" parent="1">
          <mxGeometry x="240" y="-330" width="210" height="140" as="geometry" />
        </mxCell>
        <mxCell id="0xVNqbpH2IL9jWogjmOZ-17" style="edgeStyle=orthogonalEdgeStyle;rounded=0;orthogonalLoop=1;jettySize=auto;html=1;exitX=0;exitY=0;exitDx=55.00000000000001;exitDy=0;exitPerimeter=0;" edge="1" parent="1" source="0xVNqbpH2IL9jWogjmOZ-3" target="0xVNqbpH2IL9jWogjmOZ-11">
          <mxGeometry relative="1" as="geometry" />
        </mxCell>
        <mxCell id="0xVNqbpH2IL9jWogjmOZ-46" style="edgeStyle=orthogonalEdgeStyle;rounded=0;orthogonalLoop=1;jettySize=auto;html=1;exitX=0;exitY=0;exitDx=110;exitDy=130;exitPerimeter=0;" edge="1" parent="1" source="0xVNqbpH2IL9jWogjmOZ-3" target="0xVNqbpH2IL9jWogjmOZ-41">
          <mxGeometry relative="1" as="geometry">
            <Array as="points">
              <mxPoint x="770" y="-60" />
            </Array>
          </mxGeometry>
        </mxCell>
        <mxCell id="0xVNqbpH2IL9jWogjmOZ-3" value="&lt;h2&gt;&lt;span style=&quot;font-size: 22px;&quot;&gt;&lt;font face=&quot;Verdana&quot;&gt;Application Server&lt;/font&gt;&lt;/span&gt;&lt;/h2&gt;" style="verticalAlign=top;align=center;spacingTop=8;spacingLeft=2;spacingRight=12;shape=cube;size=10;direction=south;fontStyle=4;html=1;whiteSpace=wrap;fontSize=18;fillColor=#d0cee2;strokeColor=#56517e;" vertex="1" parent="1">
          <mxGeometry x="645" y="-170" width="250" height="110" as="geometry" />
        </mxCell>
        <mxCell id="0xVNqbpH2IL9jWogjmOZ-4" value="&lt;b&gt;RestroSync&amp;nbsp;&lt;br&gt;Website&lt;/b&gt;" style="shape=module;align=left;spacingLeft=20;align=center;verticalAlign=top;whiteSpace=wrap;html=1;fillColor=#f5f5f5;strokeColor=#666666;fontColor=#333333;fontSize=20;" vertex="1" parent="1">
          <mxGeometry x="270" y="-270" width="150" height="60" as="geometry" />
        </mxCell>
        <mxCell id="0xVNqbpH2IL9jWogjmOZ-5" style="edgeStyle=orthogonalEdgeStyle;rounded=0;orthogonalLoop=1;jettySize=auto;html=1;entryX=0;entryY=0;entryDx=0;entryDy=120.00000000000001;entryPerimeter=0;fontSize=18;" edge="1" parent="1" source="0xVNqbpH2IL9jWogjmOZ-1" target="0xVNqbpH2IL9jWogjmOZ-3">
          <mxGeometry relative="1" as="geometry" />
        </mxCell>
        <mxCell id="0xVNqbpH2IL9jWogjmOZ-7" value="&lt;b style=&quot;&quot;&gt;&lt;font style=&quot;font-size: 21px;&quot;&gt;Authentication&lt;/font&gt;&lt;/b&gt;" style="verticalAlign=top;align=center;spacingTop=8;spacingLeft=2;spacingRight=12;shape=cube;size=10;direction=south;fontStyle=4;html=1;whiteSpace=wrap;fontSize=18;fillColor=#eeeeee;strokeColor=#36393d;" vertex="1" parent="1">
          <mxGeometry x="-20" y="120" width="190" height="640" as="geometry" />
        </mxCell>
        <mxCell id="0xVNqbpH2IL9jWogjmOZ-9" value="&lt;font style=&quot;font-size: 21px;&quot;&gt;&lt;b style=&quot;&quot;&gt;User Profile&lt;/b&gt;&lt;/font&gt;" style="verticalAlign=top;align=center;spacingTop=8;spacingLeft=2;spacingRight=12;shape=cube;size=10;direction=south;fontStyle=4;html=1;whiteSpace=wrap;fontSize=18;fillColor=#eeeeee;strokeColor=#36393d;" vertex="1" parent="1">
          <mxGeometry x="310" y="120" width="190" height="640" as="geometry" />
        </mxCell>
        <mxCell id="0xVNqbpH2IL9jWogjmOZ-10" value="&lt;b style=&quot;&quot;&gt;&lt;font style=&quot;font-size: 20px;&quot;&gt;Admin Management&lt;/font&gt;&lt;/b&gt;" style="verticalAlign=top;align=left;spacingTop=8;spacingLeft=2;spacingRight=12;shape=cube;size=10;direction=south;fontStyle=4;html=1;whiteSpace=wrap;fontSize=18;fillColor=#eeeeee;strokeColor=#36393d;" vertex="1" parent="1">
          <mxGeometry x="1020" y="120" width="210" height="760" as="geometry" />
        </mxCell>
        <mxCell id="0xVNqbpH2IL9jWogjmOZ-11" value="&lt;font style=&quot;font-size: 22px;&quot;&gt;&lt;b&gt;Staff&lt;/b&gt;&lt;/font&gt;" style="verticalAlign=top;align=center;spacingTop=8;spacingLeft=2;spacingRight=12;shape=cube;size=10;direction=south;fontStyle=4;html=1;whiteSpace=wrap;fontSize=18;fillColor=#eeeeee;strokeColor=#36393d;" vertex="1" parent="1">
          <mxGeometry x="1370" y="120" width="190" height="640" as="geometry" />
        </mxCell>
        <mxCell id="0xVNqbpH2IL9jWogjmOZ-15" style="edgeStyle=orthogonalEdgeStyle;rounded=0;orthogonalLoop=1;jettySize=auto;html=1;entryX=0;entryY=0;entryDx=0;entryDy=85;entryPerimeter=0;" edge="1" parent="1" source="0xVNqbpH2IL9jWogjmOZ-3" target="0xVNqbpH2IL9jWogjmOZ-7">
          <mxGeometry relative="1" as="geometry" />
        </mxCell>
        <mxCell id="0xVNqbpH2IL9jWogjmOZ-6" value="&lt;p&gt;&lt;span style=&quot;font-size: 20px;&quot;&gt;&lt;b&gt;Sign up&lt;/b&gt;&lt;/span&gt;&lt;/p&gt;" style="shape=module;align=left;spacingLeft=20;align=center;verticalAlign=top;whiteSpace=wrap;html=1;fontSize=18;" vertex="1" parent="1">
          <mxGeometry x="-5" y="200" width="145" height="70" as="geometry" />
        </mxCell>
        <mxCell id="0xVNqbpH2IL9jWogjmOZ-24" value="&lt;p&gt;&lt;span style=&quot;font-size: 20px;&quot;&gt;&lt;b&gt;Sign in&lt;/b&gt;&lt;/span&gt;&lt;/p&gt;" style="shape=module;align=left;spacingLeft=20;align=center;verticalAlign=top;whiteSpace=wrap;html=1;fontSize=18;" vertex="1" parent="1">
          <mxGeometry x="-5" y="320" width="145" height="70" as="geometry" />
        </mxCell>
        <mxCell id="0xVNqbpH2IL9jWogjmOZ-25" value="&lt;b&gt;Orders&lt;br&gt;management&amp;nbsp;&lt;/b&gt;" style="shape=module;align=left;spacingLeft=20;align=center;verticalAlign=top;whiteSpace=wrap;html=1;fontSize=18;" vertex="1" parent="1">
          <mxGeometry x="1380" y="190" width="150" height="70" as="geometry" />
        </mxCell>
        <mxCell id="0xVNqbpH2IL9jWogjmOZ-28" value="&lt;b&gt;Update&lt;/b&gt;&lt;div&gt;&lt;b&gt;information&amp;nbsp;&lt;/b&gt;&lt;/div&gt;" style="shape=module;align=left;spacingLeft=20;align=center;verticalAlign=top;whiteSpace=wrap;html=1;fontSize=18;" vertex="1" parent="1">
          <mxGeometry x="320" y="196.75" width="150" height="70" as="geometry" />
        </mxCell>
        <mxCell id="0xVNqbpH2IL9jWogjmOZ-58" style="edgeStyle=orthogonalEdgeStyle;rounded=0;orthogonalLoop=1;jettySize=auto;html=1;exitX=0;exitY=0.5;exitDx=0;exitDy=0;" edge="1" parent="1" source="0xVNqbpH2IL9jWogjmOZ-29">
          <mxGeometry relative="1" as="geometry">
            <mxPoint x="20" y="960" as="targetPoint" />
            <Array as="points">
              <mxPoint x="-70" y="330" />
              <mxPoint x="-70" y="330" />
            </Array>
          </mxGeometry>
        </mxCell>
        <mxCell id="0xVNqbpH2IL9jWogjmOZ-29" value="" style="image;aspect=fixed;perimeter=ellipsePerimeter;html=1;align=center;shadow=0;dashed=0;spacingTop=3;image=img/lib/active_directory/interface.svg;" vertex="1" parent="1">
          <mxGeometry x="-70" y="210" width="50" height="23.5" as="geometry" />
        </mxCell>
        <mxCell id="0xVNqbpH2IL9jWogjmOZ-67" style="edgeStyle=orthogonalEdgeStyle;rounded=0;orthogonalLoop=1;jettySize=auto;html=1;exitX=0;exitY=0.5;exitDx=0;exitDy=0;" edge="1" parent="1" source="0xVNqbpH2IL9jWogjmOZ-31">
          <mxGeometry relative="1" as="geometry">
            <mxPoint x="260" y="790" as="targetPoint" />
            <Array as="points">
              <mxPoint x="260" y="340" />
              <mxPoint x="260" y="340" />
            </Array>
          </mxGeometry>
        </mxCell>
        <mxCell id="0xVNqbpH2IL9jWogjmOZ-31" value="" style="image;aspect=fixed;perimeter=ellipsePerimeter;html=1;align=center;shadow=0;dashed=0;spacingTop=3;image=img/lib/active_directory/interface.svg;" vertex="1" parent="1">
          <mxGeometry x="260" y="209.75" width="50" height="23.5" as="geometry" />
        </mxCell>
        <mxCell id="0xVNqbpH2IL9jWogjmOZ-79" style="edgeStyle=orthogonalEdgeStyle;rounded=0;orthogonalLoop=1;jettySize=auto;html=1;exitX=0;exitY=0.5;exitDx=0;exitDy=0;" edge="1" parent="1" source="0xVNqbpH2IL9jWogjmOZ-32">
          <mxGeometry relative="1" as="geometry">
            <mxPoint x="629.8571428571429" y="759.9999999999998" as="targetPoint" />
            <Array as="points">
              <mxPoint x="630" y="360" />
              <mxPoint x="630" y="360" />
            </Array>
          </mxGeometry>
        </mxCell>
        <mxCell id="0xVNqbpH2IL9jWogjmOZ-32" value="" style="image;aspect=fixed;perimeter=ellipsePerimeter;html=1;align=center;shadow=0;dashed=0;spacingTop=3;image=img/lib/active_directory/interface.svg;fontSize=20;fontStyle=1" vertex="1" parent="1">
          <mxGeometry x="630" y="210" width="50" height="23.5" as="geometry" />
        </mxCell>
        <mxCell id="0xVNqbpH2IL9jWogjmOZ-33" value="" style="image;aspect=fixed;perimeter=ellipsePerimeter;html=1;align=center;shadow=0;dashed=0;spacingTop=3;image=img/lib/active_directory/interface.svg;fontSize=19;" vertex="1" parent="1">
          <mxGeometry x="970" y="220" width="50" height="23.5" as="geometry" />
        </mxCell>
        <mxCell id="0xVNqbpH2IL9jWogjmOZ-41" value="&lt;b style=&quot;&quot;&gt;&lt;font style=&quot;font-size: 19px;&quot;&gt;Ordering &amp;amp; Menu&lt;/font&gt;&lt;/b&gt;" style="verticalAlign=top;align=center;spacingTop=8;spacingLeft=2;spacingRight=12;shape=cube;size=10;direction=south;fontStyle=4;html=1;whiteSpace=wrap;fontSize=18;fillColor=#eeeeee;strokeColor=#36393d;" vertex="1" parent="1">
          <mxGeometry x="680" y="120" width="190" height="640" as="geometry" />
        </mxCell>
        <mxCell id="0xVNqbpH2IL9jWogjmOZ-27" value="Browse&amp;nbsp;&lt;br&gt;Menu" style="shape=module;align=left;spacingLeft=20;align=center;verticalAlign=top;whiteSpace=wrap;html=1;fontSize=20;fontStyle=1" vertex="1" parent="1">
          <mxGeometry x="695" y="200" width="145" height="70" as="geometry" />
        </mxCell>
        <mxCell id="0xVNqbpH2IL9jWogjmOZ-30" value="" style="image;aspect=fixed;perimeter=ellipsePerimeter;html=1;align=center;shadow=0;dashed=0;spacingTop=3;image=img/lib/active_directory/interface.svg;direction=east;" vertex="1" parent="1">
          <mxGeometry x="-70" y="330" width="50" height="23.5" as="geometry" />
        </mxCell>
        <mxCell id="0xVNqbpH2IL9jWogjmOZ-47" value="Block" style="verticalAlign=top;align=left;spacingTop=8;spacingLeft=2;spacingRight=12;shape=cube;size=10;direction=south;fontStyle=4;html=1;whiteSpace=wrap;" vertex="1" parent="1">
          <mxGeometry x="685" y="1490" width="180" height="120" as="geometry" />
        </mxCell>
        <mxCell id="0xVNqbpH2IL9jWogjmOZ-48" value="&lt;font style=&quot;font-size: 22px;&quot;&gt;Block&lt;/font&gt;" style="verticalAlign=top;align=left;spacingTop=8;spacingLeft=2;spacingRight=12;shape=cube;size=10;direction=south;fontStyle=4;html=1;whiteSpace=wrap;fontSize=18;fillColor=#eeeeee;strokeColor=#36393d;" vertex="1" parent="1">
          <mxGeometry x="715" y="865" width="180" height="310" as="geometry" />
        </mxCell>
        <mxCell id="0xVNqbpH2IL9jWogjmOZ-49" value="&lt;font style=&quot;font-size: 22px;&quot;&gt;Block&lt;/font&gt;" style="verticalAlign=top;align=left;spacingTop=8;spacingLeft=2;spacingRight=12;shape=cube;size=10;direction=south;fontStyle=4;html=1;whiteSpace=wrap;fontSize=18;fillColor=#eeeeee;strokeColor=#36393d;" vertex="1" parent="1">
          <mxGeometry x="350" y="870" width="180" height="310" as="geometry" />
        </mxCell>
        <mxCell id="0xVNqbpH2IL9jWogjmOZ-50" value="&lt;span style=&quot;font-size: 22px;&quot;&gt;Payment&lt;/span&gt;" style="verticalAlign=top;align=left;spacingTop=8;spacingLeft=2;spacingRight=12;shape=cube;size=10;direction=south;fontStyle=4;html=1;whiteSpace=wrap;fontSize=18;fillColor=#eeeeee;strokeColor=#36393d;" vertex="1" parent="1">
          <mxGeometry x="1110" y="910" width="180" height="320" as="geometry" />
        </mxCell>
        <mxCell id="0xVNqbpH2IL9jWogjmOZ-51" value="&lt;p&gt;&lt;b style=&quot;&quot;&gt;&lt;font style=&quot;font-size: 19px;&quot;&gt;Forgot password&lt;/font&gt;&lt;/b&gt;&lt;/p&gt;" style="shape=module;align=left;spacingLeft=20;align=center;verticalAlign=top;whiteSpace=wrap;html=1;fontSize=18;" vertex="1" parent="1">
          <mxGeometry x="-5" y="450" width="145" height="80" as="geometry" />
        </mxCell>
        <mxCell id="0xVNqbpH2IL9jWogjmOZ-52" value="" style="image;aspect=fixed;perimeter=ellipsePerimeter;html=1;align=center;shadow=0;dashed=0;spacingTop=3;image=img/lib/active_directory/interface.svg;direction=east;" vertex="1" parent="1">
          <mxGeometry x="-70" y="460" width="50" height="23.5" as="geometry" />
        </mxCell>
        <mxCell id="0xVNqbpH2IL9jWogjmOZ-53" value="&lt;p&gt;&lt;span style=&quot;font-size: 20px;&quot;&gt;&lt;b&gt;Login with&lt;/b&gt;&lt;/span&gt;&lt;/p&gt;" style="shape=module;align=left;spacingLeft=20;align=center;verticalAlign=top;whiteSpace=wrap;html=1;fontSize=18;" vertex="1" parent="1">
          <mxGeometry x="-5" y="580" width="145" height="70" as="geometry" />
        </mxCell>
        <mxCell id="0xVNqbpH2IL9jWogjmOZ-54" value="" style="image;aspect=fixed;perimeter=ellipsePerimeter;html=1;align=center;shadow=0;dashed=0;spacingTop=3;image=img/lib/active_directory/interface.svg;direction=east;" vertex="1" parent="1">
          <mxGeometry x="-70" y="593.25" width="50" height="23.5" as="geometry" />
        </mxCell>
        <mxCell id="0xVNqbpH2IL9jWogjmOZ-59" value="&lt;p&gt;&lt;font style=&quot;font-size: 22px;&quot;&gt;&lt;b&gt;Orders&lt;/b&gt;&lt;/font&gt;&lt;/p&gt;" style="shape=module;align=left;spacingLeft=20;align=center;verticalAlign=top;whiteSpace=wrap;html=1;fontSize=18;" vertex="1" parent="1">
          <mxGeometry x="320" y="306.75" width="150" height="70" as="geometry" />
        </mxCell>
        <mxCell id="0xVNqbpH2IL9jWogjmOZ-60" value="&lt;h3&gt;&lt;font style=&quot;font-size: 19px;&quot;&gt;Reservation&amp;nbsp;&lt;/font&gt;&lt;/h3&gt;" style="shape=module;align=left;spacingLeft=20;align=center;verticalAlign=top;whiteSpace=wrap;html=1;fontSize=18;" vertex="1" parent="1">
          <mxGeometry x="320" y="556.75" width="150" height="70" as="geometry" />
        </mxCell>
        <mxCell id="0xVNqbpH2IL9jWogjmOZ-62" value="&lt;h3&gt;&lt;span style=&quot;font-size: 20px;&quot;&gt;Feedback&amp;nbsp;&lt;/span&gt;&lt;/h3&gt;" style="shape=module;align=left;spacingLeft=20;align=center;verticalAlign=top;whiteSpace=wrap;html=1;fontSize=18;" vertex="1" parent="1">
          <mxGeometry x="320" y="666.75" width="150" height="70" as="geometry" />
        </mxCell>
        <mxCell id="0xVNqbpH2IL9jWogjmOZ-63" value="" style="image;aspect=fixed;perimeter=ellipsePerimeter;html=1;align=center;shadow=0;dashed=0;spacingTop=3;image=img/lib/active_directory/interface.svg;" vertex="1" parent="1">
          <mxGeometry x="260" y="320" width="50" height="23.5" as="geometry" />
        </mxCell>
        <mxCell id="0xVNqbpH2IL9jWogjmOZ-64" value="" style="image;aspect=fixed;perimeter=ellipsePerimeter;html=1;align=center;shadow=0;dashed=0;spacingTop=3;image=img/lib/active_directory/interface.svg;" vertex="1" parent="1">
          <mxGeometry x="260" y="450" width="50" height="23.5" as="geometry" />
        </mxCell>
        <mxCell id="0xVNqbpH2IL9jWogjmOZ-65" value="" style="image;aspect=fixed;perimeter=ellipsePerimeter;html=1;align=center;shadow=0;dashed=0;spacingTop=3;image=img/lib/active_directory/interface.svg;" vertex="1" parent="1">
          <mxGeometry x="260" y="580" width="50" height="23.5" as="geometry" />
        </mxCell>
        <mxCell id="0xVNqbpH2IL9jWogjmOZ-68" value="Place&lt;div&gt;Order&lt;/div&gt;" style="shape=module;align=left;spacingLeft=20;align=center;verticalAlign=top;whiteSpace=wrap;html=1;fontSize=20;fontStyle=1" vertex="1" parent="1">
          <mxGeometry x="695" y="320" width="145" height="70" as="geometry" />
        </mxCell>
        <mxCell id="0xVNqbpH2IL9jWogjmOZ-69" value="Track Order" style="shape=module;align=left;spacingLeft=20;align=center;verticalAlign=top;whiteSpace=wrap;html=1;fontSize=20;fontStyle=1" vertex="1" parent="1">
          <mxGeometry x="695" y="670" width="145" height="70" as="geometry" />
        </mxCell>
        <mxCell id="0xVNqbpH2IL9jWogjmOZ-70" value="Check out" style="shape=module;align=left;spacingLeft=20;align=center;verticalAlign=top;whiteSpace=wrap;html=1;fontSize=20;fontStyle=1" vertex="1" parent="1">
          <mxGeometry x="695" y="436.75" width="145" height="70" as="geometry" />
        </mxCell>
        <mxCell id="0xVNqbpH2IL9jWogjmOZ-72" value="" style="image;aspect=fixed;perimeter=ellipsePerimeter;html=1;align=center;shadow=0;dashed=0;spacingTop=3;image=img/lib/active_directory/interface.svg;fontSize=20;fontStyle=1" vertex="1" parent="1">
          <mxGeometry x="630" y="330" width="50" height="23.5" as="geometry" />
        </mxCell>
        <mxCell id="0xVNqbpH2IL9jWogjmOZ-73" value="" style="image;aspect=fixed;perimeter=ellipsePerimeter;html=1;align=center;shadow=0;dashed=0;spacingTop=3;image=img/lib/active_directory/interface.svg;fontSize=20;fontStyle=1" vertex="1" parent="1">
          <mxGeometry x="630" y="450" width="50" height="23.5" as="geometry" />
        </mxCell>
        <mxCell id="0xVNqbpH2IL9jWogjmOZ-74" value="" style="image;aspect=fixed;perimeter=ellipsePerimeter;html=1;align=center;shadow=0;dashed=0;spacingTop=3;image=img/lib/active_directory/interface.svg;fontSize=20;fontStyle=1" vertex="1" parent="1">
          <mxGeometry x="630" y="570" width="50" height="23.5" as="geometry" />
        </mxCell>
        <mxCell id="0xVNqbpH2IL9jWogjmOZ-76" value="Order&amp;nbsp;&lt;div&gt;Status&lt;/div&gt;" style="shape=module;align=left;spacingLeft=20;align=center;verticalAlign=top;whiteSpace=wrap;html=1;fontSize=20;fontStyle=1" vertex="1" parent="1">
          <mxGeometry x="697.5" y="556.75" width="145" height="70" as="geometry" />
        </mxCell>
        <mxCell id="0xVNqbpH2IL9jWogjmOZ-78" value="" style="image;aspect=fixed;perimeter=ellipsePerimeter;html=1;align=center;shadow=0;dashed=0;spacingTop=3;image=img/lib/active_directory/interface.svg;fontSize=20;fontStyle=1" vertex="1" parent="1">
          <mxGeometry x="630" y="690" width="50" height="23.5" as="geometry" />
        </mxCell>
        <mxCell id="0xVNqbpH2IL9jWogjmOZ-80" value="&lt;h3&gt;&lt;span style=&quot;font-size: 20px;&quot;&gt;Favorites&amp;nbsp;&lt;/span&gt;&lt;/h3&gt;" style="shape=module;align=left;spacingLeft=20;align=center;verticalAlign=top;whiteSpace=wrap;html=1;fontSize=18;" vertex="1" parent="1">
          <mxGeometry x="320" y="426.75" width="150" height="70" as="geometry" />
        </mxCell>
        <mxCell id="0xVNqbpH2IL9jWogjmOZ-81" value="" style="image;aspect=fixed;perimeter=ellipsePerimeter;html=1;align=center;shadow=0;dashed=0;spacingTop=3;image=img/lib/active_directory/interface.svg;" vertex="1" parent="1">
          <mxGeometry x="260" y="680" width="50" height="23.5" as="geometry" />
        </mxCell>
        <mxCell id="0xVNqbpH2IL9jWogjmOZ-82" value="Orders" style="shape=module;align=left;spacingLeft=20;align=center;verticalAlign=top;whiteSpace=wrap;html=1;fontSize=19;fontStyle=1" vertex="1" parent="1">
          <mxGeometry x="1052.5" y="196.75" width="145" height="63.25" as="geometry" />
        </mxCell>
        <mxCell id="0xVNqbpH2IL9jWogjmOZ-83" value="Menu" style="shape=module;align=left;spacingLeft=20;align=center;verticalAlign=top;whiteSpace=wrap;html=1;fontSize=19;fontStyle=1" vertex="1" parent="1">
          <mxGeometry x="1052.5" y="290.25" width="145" height="63.25" as="geometry" />
        </mxCell>
        <mxCell id="0xVNqbpH2IL9jWogjmOZ-84" value="Reservation&amp;nbsp;" style="shape=module;align=left;spacingLeft=20;align=center;verticalAlign=top;whiteSpace=wrap;html=1;fontSize=19;fontStyle=1" vertex="1" parent="1">
          <mxGeometry x="1052.5" y="396.75" width="145" height="63.25" as="geometry" />
        </mxCell>
        <mxCell id="0xVNqbpH2IL9jWogjmOZ-85" value="Staff" style="shape=module;align=left;spacingLeft=20;align=center;verticalAlign=top;whiteSpace=wrap;html=1;fontSize=19;fontStyle=1" vertex="1" parent="1">
          <mxGeometry x="1052.5" y="496.75" width="145" height="63.25" as="geometry" />
        </mxCell>
        <mxCell id="0xVNqbpH2IL9jWogjmOZ-86" value="Inventory&amp;nbsp;" style="shape=module;align=left;spacingLeft=20;align=center;verticalAlign=top;whiteSpace=wrap;html=1;fontSize=19;fontStyle=1" vertex="1" parent="1">
          <mxGeometry x="1052.5" y="593.5" width="145" height="63.25" as="geometry" />
        </mxCell>
        <mxCell id="0xVNqbpH2IL9jWogjmOZ-87" value="Customers" style="shape=module;align=left;spacingLeft=20;align=center;verticalAlign=top;whiteSpace=wrap;html=1;fontSize=19;fontStyle=1" vertex="1" parent="1">
          <mxGeometry x="1052.5" y="696.75" width="145" height="63.25" as="geometry" />
        </mxCell>
        <mxCell id="0xVNqbpH2IL9jWogjmOZ-88" value="Generate&amp;nbsp;&lt;br&gt;reports" style="shape=module;align=left;spacingLeft=20;align=center;verticalAlign=top;whiteSpace=wrap;html=1;fontSize=19;fontStyle=1" vertex="1" parent="1">
          <mxGeometry x="1052.5" y="801.75" width="145" height="63.25" as="geometry" />
        </mxCell>
        <mxCell id="0xVNqbpH2IL9jWogjmOZ-90" value="&lt;font style=&quot;font-size: 18px;&quot;&gt;Menu&amp;nbsp;&lt;br&gt;management&amp;nbsp;&lt;/font&gt;" style="shape=module;align=left;spacingLeft=20;align=center;verticalAlign=top;whiteSpace=wrap;html=1;fontSize=20;fontStyle=1" vertex="1" parent="1">
          <mxGeometry x="1385" y="306.75" width="145" height="63.25" as="geometry" />
        </mxCell>
        <mxCell id="0xVNqbpH2IL9jWogjmOZ-91" value="Customer&lt;div&gt;management&amp;nbsp;&lt;/div&gt;" style="shape=module;align=left;spacingLeft=20;align=center;verticalAlign=top;whiteSpace=wrap;html=1;fontSize=20;fontStyle=1" vertex="1" parent="1">
          <mxGeometry x="1385" y="420.25" width="145" height="63.25" as="geometry" />
        </mxCell>
      </root>
    </mxGraphModel>
  </diagram>
</mxfile>
